<svg id="emoji" viewBox="5 9 46 43" xmlns="http://www.w3.org/2000/svg">
  <g>
    <path
      fill="none"
      stroke-linecap="round"
      stroke-width="4.68"
      stroke="#ff5500"
      d="M 33.12 24.48 L 33.12 24.24 L 32.88 24.00 L 32.40 24.00 L 31.92 24.00 L 31.56 24.00 L 30.72 24.00 L 29.88 24.24 L 28.68 24.84 L 27.84 25.32 L 27.36 25.68 L 27.12 25.68 L 26.76 26.28 L 26.52 26.64 L 26.40 27.00 L 26.40 27.24 L 26.40 27.96 L 26.40 28.68 L 26.40 29.28 L 26.40 29.88 L 26.40 30.36 L 26.40 31.08 L 26.40 31.32 L 26.52 31.56 L 26.64 31.56 L 26.64 31.68 L 26.76 31.68 L 26.88 31.68 L 27.72 31.68 L 28.68 31.80 L 29.52 31.80 L 30.12 31.80 L 30.48 31.80 L 31.08 31.68 L 31.32 31.68 L 31.80 31.20 L 32.04 30.72 L 32.28 30.48 L 32.52 30.00 L 32.64 29.52 L 32.76 28.80 L 32.76 28.20 L 32.88 27.48 L 32.88 27.00 L 32.88 26.52 L 32.88 25.92 L 32.88 25.44 L 32.88 25.20 L 32.64 24.96 L 32.52 24.84 L 32.28 24.60 L 32.16 24.48 L 31.56 24.48 L 30.48 24.24 L 30.12 24.24 L 29.88 24.24 L 29.28 24.24 L 28.80 24.24 L 28.68 24.24 L 28.32 24.60 L 27.96 24.84 L 27.72 25.32 L 27.48 26.04 L 27.36 26.52 L 27.36 27.00 L 27.24 27.36 L 27.24 27.60 L 27.24 27.84 L 27.24 28.08 L 27.48 28.68 L 27.60 29.16 L 27.96 29.40 L 28.08 29.64 L 28.32 29.76 L 28.68 29.88 L 29.16 29.88 L 30.24 29.88 L 30.84 29.88 L 31.56 29.88 L 32.16 29.76 L 32.52 29.40 L 33.12 28.56 L 33.36 27.84 L 33.48 27.12 L 33.48 26.52 L 33.48 26.04 L 33.48 25.56 L 33.48 25.08 L 33.48 24.72 L 33.24 24.36 L 32.88 24.12 L 32.64 23.88 L 32.16 23.52 L 31.08 23.16 L 30.72 23.04 L 30.12 23.04 L 29.76 23.04 L 29.40 23.04 L 29.04 23.04 L 28.44 23.04 L 28.20 23.28 L 27.84 23.76 L 27.48 24.24 L 27.24 24.72 L 27.00 25.32 L 26.76 26.04 L 26.76 27.00 L 26.76 27.48 L 26.76 28.08 L 26.76 28.68 L 26.76 29.16 L 26.76 29.28 L 26.88 29.76 L 27.12 29.88 L 27.48 30.12 L 28.56 30.48 L 29.28 30.60 L 31.08 30.60 L 32.04 30.60 L 32.64 30.60 L 33.12 30.36 L 33.48 30.12 L 33.84 29.52 L 34.20 28.56 L 34.32 28.20 L 34.32 27.72 L 34.32 26.88 L 34.32 26.28 L 34.32 26.04 L 34.32 25.08 L 34.32 24.84 L 34.32 24.72 L 34.20 24.72 L 33.96 24.48 L 33.60 24.48 L 32.88 24.36 L 32.04 24.36 L 31.44 24.36 L 30.72 24.36 L 30.12 24.36 L 30.00 24.36 L 29.52 24.72 L 29.16 25.08 L 28.92 25.56 L 28.80 25.92 L 28.80 26.28 L 28.68 26.52 L 28.68 26.88 L 28.68 27.24 L 28.68 27.48 L 28.68 27.72 L 28.80 28.08 L 28.92 28.20 L 29.40 28.80 L 29.64 29.04 L 29.88 29.16 L 30.00 29.16 L 30.24 29.16 L 30.60 29.16 L 30.96 29.16 L 31.32 29.16 L 31.80 29.16 L 32.28 28.92 L 32.52 28.56 L 32.64 28.44 L 32.64 28.32 L 32.52 28.20 "
      stroke-linejoin="round"></path>
    <path
      fill="none"
      stroke-linecap="round"
      stroke-width="4.68"
      stroke="#ff5500"
      d="M 29.16 30.00 L 29.04 30.12 L 29.04 30.48 L 28.92 30.84 L 28.92 31.20 L 28.92 31.44 L 28.92 31.68 L 28.92 31.92 L 29.16 32.16 L 29.28 32.40 L 29.28 32.52 L 29.52 32.64 L 29.76 32.76 L 30.12 32.76 L 30.60 32.76 L 30.72 32.76 L 30.84 32.76 L 30.96 32.76 L 31.20 32.76 L 31.44 32.76 L 31.92 32.76 L 32.40 32.76 L 32.76 32.52 L 33.00 32.40 L 33.48 32.28 L 33.72 31.92 L 33.96 31.68 L 34.08 31.68 L 34.32 31.32 L 34.44 31.20 L 34.56 30.96 L 34.92 30.48 L 35.04 30.12 L 35.16 29.76 L 35.28 29.52 L 35.28 29.04 L 35.28 28.56 L 35.28 27.96 L 35.28 27.60 L 35.28 27.12 L 35.28 26.88 L 35.28 26.52 L 35.28 26.16 L 35.28 25.56 L 35.28 25.44 L 35.28 25.20 L 35.16 24.96 L 34.92 24.72 L 34.92 24.60 L 34.80 24.60 L 34.68 24.36 L 34.56 23.88 L 34.44 23.88 L 34.32 23.76 L 34.32 23.52 L 34.08 23.52 L 33.96 23.28 L 33.84 23.16 L 33.72 23.16 L 33.60 23.04 L 33.48 22.92 L 33.36 22.80 L 33.24 22.80 L 33.12 22.68 L 33.00 22.68 L 32.88 22.68 L 32.76 22.68 L 32.52 22.68 L 32.40 22.68 L 32.28 22.68 L 32.16 22.68 L 32.04 22.68 L 31.80 22.68 L 31.56 22.68 L 31.44 22.68 L 31.20 22.68 L 31.08 22.68 L 30.72 22.68 L 30.36 22.68 L 30.12 22.68 L 29.88 22.80 L 29.40 22.92 L 29.28 22.92 L 29.16 22.92 L 29.16 23.04 L 28.92 23.16 L 28.80 23.16 L 28.56 23.40 L 28.44 23.52 L 28.08 23.76 L 27.84 24.00 L 27.84 24.12 L 27.84 24.24 L 27.84 24.36 L 27.84 24.48 L 27.60 24.72 L 27.48 25.08 L 27.36 25.32 L 27.36 25.56 L 27.36 25.68 L 27.24 25.92 L 27.12 26.28 L 27.00 26.52 L 27.00 26.88 L 26.76 27.36 L 26.64 27.48 L 26.64 27.60 L 26.52 28.08 L 26.40 28.56 L 26.40 28.92 L 26.28 29.28 L 26.28 29.52 L 26.28 29.64 L 26.28 29.88 L 26.28 30.24 L 26.28 30.36 L 26.28 30.48 L 26.28 30.72 L 26.28 30.84 L 26.40 30.96 L 26.64 31.20 L 26.88 31.44 L 26.88 31.68 L 27.12 31.80 L 27.24 31.92 L 27.24 32.04 L 27.48 32.04 L 27.60 32.16 L 27.60 32.28 L 27.72 32.40 L 27.84 32.40 L 28.08 32.52 L 28.32 32.52 L 28.56 32.52 L 28.68 32.52 L 28.80 32.52 L 28.92 32.52 L 29.16 32.52 L 29.28 32.52 L 29.64 32.52 L 29.88 32.52 L 30.00 32.52 L 30.24 32.52 L 30.36 32.52 L 30.48 32.52 L 30.60 32.40 L 30.60 32.28 L 30.72 32.28 L 30.84 32.28 L 30.96 32.28 L 31.20 32.16 L 31.44 31.92 L 31.56 31.92 L 31.68 31.80 L 31.92 31.56 L 32.04 31.56 L 32.16 31.44 L 32.40 31.32 L 32.52 31.20 L 32.64 31.08 L 32.76 30.96 L 33.00 30.84 L 33.00 30.72 L 33.12 30.60 L 33.24 30.60 "
      stroke-linejoin="round"></path>
    <path
      fill="none"
      stroke-linecap="round"
      stroke-width="4.68"
      stroke="#ff5500"
      d="M 26.40 32.04 L 26.28 32.04 L 26.28 32.16 L 26.40 32.16 L 26.64 32.28 L 26.76 32.40 L 26.88 32.52 L 27.12 32.76 L 27.24 32.88 L 27.36 32.88 L 27.48 33.00 L 27.60 33.00 L 27.72 33.12 L 27.96 33.24 L 28.20 33.36 L 28.20 33.48 L 28.32 33.48 L 28.56 33.48 L 28.68 33.60 L 28.80 33.60 L 28.80 33.72 L 29.16 33.84 L 29.28 33.84 L 29.52 33.84 L 29.76 33.84 L 30.12 33.84 L 30.36 33.84 L 30.48 33.84 L 30.60 33.84 L 30.72 33.84 L 30.96 33.84 L 31.08 33.84 L 31.20 33.84 L 31.68 33.72 L 31.80 33.72 L 32.04 33.36 L 32.16 33.36 L 32.40 33.12 L 32.52 33.00 L 32.64 32.64 L 32.64 32.52 L 32.76 32.40 L 33.12 32.16 L 33.12 32.04 L 33.12 31.92 L 33.24 31.92 L 33.24 31.80 L 33.24 31.56 L 33.36 31.56 L 33.36 31.44 L 33.36 31.20 L 33.48 30.96 L 33.48 30.84 L 33.60 30.84 L 33.60 30.72 L 33.72 30.36 L 33.72 30.12 L 33.72 29.88 L 33.72 29.76 L 33.72 29.52 L 33.72 29.40 L 33.72 29.16 L 33.72 29.04 L 33.72 28.80 L 33.72 28.68 L 33.72 28.56 L 33.72 28.44 "
      stroke-linejoin="round"></path>
    <path
      fill="none"
      stroke-linecap="round"
      stroke-width="4.68"
      stroke="#ff5500"
      d="M 27.00 35.16 L 27.00 35.40 L 27.00 35.64 L 27.00 35.76 L 27.00 36.36 L 27.00 36.60 L 26.88 36.84 L 26.64 37.32 L 26.28 37.92 L 26.04 38.16 L 25.56 38.40 L 24.96 38.76 L 24.60 39.00 L 24.24 39.24 L 24.00 39.36 L 23.52 39.60 L 23.40 39.72 L 23.04 39.72 L 22.44 39.96 L 21.72 40.32 L 20.52 40.92 L 20.04 41.04 L 19.80 41.04 L 19.68 41.04 L 19.44 41.04 L 19.32 41.04 L 18.60 41.04 L 18.24 41.04 L 17.88 41.04 L 18.00 41.04 L 18.24 41.04 L 18.96 41.04 L 19.56 41.04 L 19.92 41.04 L 20.40 41.04 L 20.88 40.80 L 21.24 40.56 L 21.72 40.32 L 22.08 40.20 L 22.44 39.96 L 22.68 39.84 L 23.04 39.72 L 23.28 39.60 L 23.64 39.48 L 23.76 39.36 L 24.24 39.12 L 24.48 39.00 L 24.72 38.76 L 24.84 38.64 L 25.08 38.52 L 25.32 38.16 L 25.44 38.04 L 25.56 37.80 L 25.68 37.56 L 25.68 37.44 L 25.80 37.32 L 25.92 37.20 L 25.92 36.96 L 26.04 36.84 L 26.28 36.60 L 26.28 36.36 L 26.40 36.24 L 26.52 36.12 L 26.64 36.00 L 26.64 35.88 L 26.88 35.76 L 27.00 35.52 L 27.00 35.40 L 27.12 35.28 L 27.12 35.04 L 27.12 35.28 L 27.12 35.40 L 27.12 35.64 L 27.12 35.88 L 27.12 36.24 L 27.12 36.84 L 26.76 37.32 L 26.28 38.04 L 26.16 38.28 L 26.04 38.40 L 25.92 38.52 L 25.80 38.52 L 25.68 38.64 L 25.56 38.76 L 25.20 38.88 L 24.72 39.24 L 24.48 39.36 L 24.24 39.48 L 24.24 39.60 L 24.12 39.72 L 24.00 39.72 L 23.88 39.96 L 23.64 40.08 L 23.52 40.08 L 23.52 40.20 L 23.28 40.32 L 23.04 40.44 L 22.92 40.44 L 22.80 40.56 L 22.68 40.56 L 22.44 40.56 L 22.20 40.68 L 21.96 40.68 L 21.84 40.68 L 21.72 40.68 L 21.60 40.68 L 21.36 40.68 L 21.12 40.68 L 20.88 40.68 L 20.64 40.68 L 20.52 40.68 L 20.40 40.68 L 20.28 40.68 L 20.16 40.68 L 19.92 40.80 L 19.80 40.92 L 19.44 40.92 L 19.20 41.04 L 19.08 41.04 L 18.96 41.04 L 18.84 41.04 L 18.72 40.92 "
      stroke-linejoin="round"></path>
    <path fill="none" stroke-linecap="round" stroke-width="4.68" stroke="#ff5500" d="M 34.08 36.24 L 34.08 36.24 " stroke-linejoin="round"></path>
    <path fill="none" stroke-linecap="round" stroke-width="4.68" stroke="#ff5500" d="M 22.92 33.00 L 22.92 33.00 " stroke-linejoin="round"></path>
    <path fill="none" stroke-linecap="round" stroke-width="4.68" stroke="#ff5500" d="M 22.92 33.00 L 22.80 32.88 L 22.68 32.64 L 22.68 32.52 L 22.68 32.40 L 22.56 32.28 L 22.44 32.16 L 22.44 32.04 L 22.32 31.92 L 22.20 31.80 " stroke-linejoin="round"></path>
    <path
      fill="none"
      stroke-linecap="round"
      stroke-width="4.68"
      stroke="#ff5500"
      d="M 34.68 35.40 L 34.80 35.28 L 34.92 35.28 L 35.04 35.28 L 35.52 35.16 L 35.76 35.16 L 35.88 35.04 L 36.12 35.04 L 36.24 34.92 L 36.36 34.92 L 36.48 34.80 L 36.48 34.68 "
      stroke-linejoin="round"></path>
    <path
      fill="none"
      stroke-linecap="round"
      stroke-width="3.48"
      stroke="#ff5500"
      d="M 37.32 23.64 L 37.44 23.64 L 37.56 23.64 L 37.80 23.28 L 38.40 22.92 L 38.76 22.44 L 39.36 22.08 L 39.72 21.84 L 39.72 21.48 L 39.84 21.48 L 39.84 21.36 L 39.96 21.24 L 39.96 21.12 "
      stroke-linejoin="round"></path>
    <path
      fill="none"
      stroke-linecap="round"
      stroke-width="3.48"
      stroke="#ff5500"
      d="M 25.44 23.40 L 25.32 23.40 L 25.32 23.16 L 25.32 22.92 L 25.32 22.56 L 25.32 22.32 L 25.32 21.84 L 25.32 21.48 L 25.32 21.00 L 25.32 20.52 L 25.32 20.16 L 25.32 20.04 L 25.32 19.80 L 25.32 19.56 L 25.32 19.44 L 25.32 19.20 L 25.32 19.08 L 25.32 18.84 L 25.32 18.72 L 25.32 18.48 L 25.32 18.36 "
      stroke-linejoin="round"></path>
    <path fill="none" stroke-linecap="round" stroke-width="3.48" stroke="#555555" d="M 36.24 27.84 L 36.36 27.84 L 36.96 27.84 L 38.52 27.84 L 40.20 27.96 L 41.64 28.20 L 42.72 28.44 L 43.80 28.44 L 44.04 28.56 " stroke-linejoin="round"></path>
    <path
      fill="none"
      stroke-linecap="round"
      stroke-width="3.48"
      stroke="#555555"
      d="M 27.48 26.52 L 27.36 26.52 L 27.00 26.52 L 26.52 26.52 L 25.80 26.52 L 24.48 26.52 L 23.28 26.52 L 22.32 26.52 L 20.88 26.52 L 19.44 26.52 L 18.36 26.52 L 18.00 26.52 L 17.64 26.52 L 17.40 26.52 L 17.28 26.52 L 17.16 26.64 L 17.16 26.76 L 17.04 26.88 L 16.92 27.00 L 16.80 27.12 L 16.68 27.24 L 16.56 27.24 "
      stroke-linejoin="round"></path>
    <path
      fill="none"
      stroke-linecap="round"
      stroke-width="3.48"
      stroke="#555555"
      d="M 17.04 26.76 L 17.04 26.88 L 17.16 26.88 L 17.40 26.88 L 17.88 26.88 L 18.48 26.88 L 20.28 26.88 L 21.48 26.88 L 22.80 26.88 L 24.24 26.88 L 25.92 26.88 L 27.12 26.88 L 28.92 26.88 L 30.36 26.88 L 31.20 26.88 L 31.56 26.88 L 31.80 26.88 L 32.04 26.88 L 32.28 26.88 L 32.76 26.88 L 33.12 26.88 L 33.48 26.88 L 33.60 26.88 L 33.84 27.00 L 34.08 27.12 L 34.56 27.12 L 34.80 27.12 L 35.16 27.24 L 35.28 27.36 L 35.52 27.48 L 35.88 27.48 L 36.24 27.60 L 36.36 27.72 L 36.60 27.84 L 37.08 28.08 L 37.68 28.20 L 38.16 28.44 L 38.28 28.44 L 38.52 28.56 L 39.36 29.04 L 39.60 29.04 L 39.84 29.04 L 39.96 29.04 L 40.08 29.04 L 40.44 29.04 L 40.68 29.04 L 40.80 29.04 L 40.92 29.04 L 41.40 29.16 L 42.00 29.40 L 42.24 29.52 L 42.36 29.52 L 42.48 29.52 L 42.60 29.52 L 42.84 29.64 L 43.20 29.64 L 43.80 29.76 L 44.04 29.76 L 44.76 30.00 L 45.36 30.00 L 45.60 30.00 L 45.72 30.00 L 45.96 30.00 L 46.20 30.00 L 46.32 30.00 L 46.80 30.00 L 47.04 30.12 L 47.16 30.12 L 47.28 30.12 L 47.52 30.12 L 47.64 30.24 L 47.76 30.24 L 47.76 30.36 L 48.00 30.36 L 48.24 30.48 L 48.36 30.48 L 48.72 30.60 L 48.60 30.36 L 47.88 30.00 L 47.16 29.64 L 45.84 29.16 L 44.52 28.56 L 43.56 28.44 L 42.84 28.32 L 42.24 28.08 L 41.28 27.96 L 40.20 27.72 L 39.48 27.60 L 39.00 27.24 L 38.40 27.12 L 38.28 27.00 L 38.04 27.00 L 37.92 27.00 L 37.80 27.00 L 37.56 26.88 L 37.08 26.76 L 36.84 26.64 L 36.60 26.64 L 36.24 26.52 L 36.12 26.40 L 36.00 26.40 L 35.64 26.28 L 35.40 26.16 L 35.28 26.16 L 35.16 26.16 L 34.92 26.16 L 34.80 26.04 L 34.68 26.04 L 34.56 25.92 L 34.56 25.68 L 34.56 25.56 L 34.56 25.32 L 34.56 25.20 L 34.56 25.08 L 34.56 24.96 L 34.56 24.84 L 34.56 24.60 L 34.44 24.48 L 34.32 24.48 L 34.08 24.48 L 33.96 24.48 L 33.84 24.96 L 33.84 25.32 L 33.84 25.68 L 33.84 26.04 L 33.84 26.40 L 33.72 26.64 L 33.72 27.60 L 33.72 28.08 L 33.60 28.32 L 33.48 28.92 L 33.36 29.16 L 33.36 29.40 L 33.24 29.76 L 33.12 29.76 L 33.12 30.00 L 33.12 30.12 L 33.00 30.48 L 33.00 30.60 L 32.88 30.72 L 32.88 30.84 L 33.00 30.84 L 33.00 30.48 L 33.12 30.48 L 33.12 30.36 L 33.12 30.24 L 33.12 30.12 L 33.24 30.00 L 33.48 29.76 L 33.48 29.64 "
      stroke-linejoin="round"></path>
    <path
      fill="none"
      stroke-linecap="round"
      stroke-width="3.48"
      stroke="#555555"
      d="M 27.24 30.00 L 27.24 29.76 L 27.24 29.52 L 27.24 29.16 L 27.24 28.80 L 27.24 28.32 L 27.24 27.72 L 27.36 26.88 L 27.84 26.28 L 27.84 26.04 L 27.96 25.68 L 28.08 25.20 L 28.08 25.08 L 28.08 24.96 L 28.20 24.84 L 28.32 24.48 L 28.44 24.12 L 28.56 23.88 L 28.56 23.64 L 28.68 23.52 L 28.68 23.40 L 28.68 23.16 L 28.80 23.04 L 29.04 23.04 L 29.52 23.04 L 30.12 23.04 L 30.84 23.04 L 31.56 23.04 L 31.80 23.04 L 32.04 23.04 L 32.16 23.04 L 32.40 23.16 L 32.52 23.16 L 32.64 23.40 L 32.64 23.76 L 32.64 24.24 L 32.64 24.72 L 32.64 25.20 L 32.16 26.16 L 31.92 26.76 L 31.80 27.24 L 31.44 27.84 L 31.44 28.20 L 31.20 28.56 L 31.20 28.68 L 30.96 29.16 L 30.96 29.28 L 30.96 29.40 L 30.84 29.52 L 30.72 29.64 L 30.48 30.00 L 30.36 30.12 L 30.24 30.36 L 30.00 30.36 L 29.76 30.36 L 29.52 30.36 L 29.28 30.36 L 29.04 30.24 L 29.04 30.00 L 29.04 29.88 L 29.04 29.64 L 29.04 28.56 L 29.04 27.60 L 29.04 26.88 L 29.40 26.28 L 29.52 25.80 L 29.76 25.08 L 30.00 24.60 L 30.12 24.36 L 30.12 24.24 L 30.12 23.88 L 30.24 23.76 L 30.36 23.64 L 30.00 24.12 L 29.76 24.84 L 27.72 27.72 L 27.24 28.80 L 26.64 29.64 L 26.52 30.12 L 26.40 30.24 L 26.40 30.48 L 26.40 30.72 L 26.40 30.84 L 26.40 30.96 L 26.40 31.08 L 26.40 31.20 L 26.40 31.32 L 26.88 31.44 L 27.24 31.44 L 27.60 31.44 L 27.84 31.44 L 28.20 31.44 L 28.32 31.44 L 28.80 31.56 L 29.28 31.68 L 29.88 31.80 L 30.12 31.80 L 30.36 31.92 L 30.72 32.16 L 30.84 32.16 L 31.20 32.16 L 31.32 32.16 L 31.44 32.16 L 31.56 32.16 L 31.68 32.16 L 31.80 32.16 L 31.92 31.92 L 32.04 31.92 L 32.16 31.68 L 32.16 31.56 L 32.28 31.56 L 32.28 31.44 L 32.40 31.32 L 32.52 31.20 L 32.64 31.20 L 32.64 31.08 L 32.64 30.96 L 32.64 30.24 L 32.64 29.64 L 32.64 29.28 L 32.64 28.68 L 32.64 28.08 L 32.64 27.60 L 32.64 26.76 L 32.64 26.40 L 32.64 25.68 L 32.64 25.44 L 32.64 25.20 L 32.64 24.96 L 32.64 24.72 L 32.64 24.60 L 32.52 24.24 L 32.52 24.12 L 32.52 24.00 L 32.40 24.00 L 32.28 23.76 L 32.40 23.76 L 32.76 23.76 L 33.00 23.76 L 33.36 23.76 L 33.48 23.76 L 33.60 23.76 "
      stroke-linejoin="round"></path>
    <path
      fill="none"
      stroke-linecap="round"
      stroke-width="3.48"
      stroke="#555555"
      d="M 18.12 26.52 L 18.00 26.52 L 17.76 26.52 L 17.52 26.52 L 17.40 26.52 L 16.92 26.52 L 16.32 26.52 L 15.96 26.52 L 15.72 26.52 L 15.48 26.52 L 15.12 26.52 L 15.00 26.52 L 14.88 26.52 L 14.76 26.52 L 14.64 26.52 L 14.52 26.52 L 14.40 26.52 "
      stroke-linejoin="round"></path>
    <path fill="none" stroke-linecap="round" stroke-width="3.48" stroke="#ffff00" d="M 13.44 30.96 L 13.20 30.96 L 12.60 31.08 L 12.24 31.32 L 10.80 32.52 L 10.44 33.24 L 10.08 34.08 L 9.72 34.80 L 9.48 35.28 L 9.48 35.40 " stroke-linejoin="round"></path>
    <path
      fill="none"
      stroke-linecap="round"
      stroke-width="3.48"
      stroke="#ffff00"
      d="M 46.68 34.80 L 46.68 34.92 L 46.68 35.04 L 46.68 35.28 L 46.68 35.76 L 46.68 36.72 L 46.44 37.92 L 45.96 39.24 L 45.24 40.20 L 44.76 41.16 L 44.52 41.52 L 44.40 41.88 L 44.40 42.00 "
      stroke-linejoin="round"></path>
    <path
      fill="none"
      stroke-linecap="round"
      stroke-width="3.48"
      stroke="#ffff00"
      d="M 43.92 36.12 L 43.56 36.48 L 43.32 37.32 L 42.96 38.16 L 42.36 39.36 L 41.76 40.80 L 41.40 41.76 L 41.16 42.24 L 40.92 42.60 L 40.92 42.72 L 40.92 42.84 L 40.92 43.08 "
      stroke-linejoin="round"></path>
    <path
      fill="none"
      stroke-linecap="round"
      stroke-width="3.48"
      stroke="#ffff00"
      d="M 12.96 32.88 L 12.96 33.12 L 12.96 33.48 L 12.72 34.44 L 12.24 35.76 L 11.04 37.68 L 10.68 37.92 L 10.20 38.40 L 10.08 38.52 L 9.84 38.64 L 9.72 38.64 "
      stroke-linejoin="round"></path>
    <path
      fill="none"
      stroke-linecap="round"
      stroke-width="3.48"
      stroke="#ffff00"
      d="M 13.56 31.92 L 13.56 32.40 L 13.32 33.00 L 13.32 33.48 L 13.08 34.32 L 12.96 34.92 L 12.84 35.28 L 12.36 36.00 L 12.24 36.36 L 11.88 36.84 L 11.64 37.08 L 11.40 37.32 L 11.28 37.32 "
      stroke-linejoin="round"></path>
    <path
      fill="none"
      stroke-linecap="round"
      stroke-width="3.48"
      stroke="#ffff00"
      d="M 14.64 31.20 L 14.64 31.32 L 14.16 31.68 L 13.20 32.64 L 11.76 33.96 L 10.56 34.92 L 9.96 35.28 L 9.84 35.28 L 9.72 35.52 L 9.60 35.52 L 9.48 35.52 L 9.36 35.52 "
      stroke-linejoin="round"></path>
    <path
      fill="none"
      stroke-linecap="round"
      stroke-width="3.48"
      stroke="#ff5500"
      d="M 31.08 19.68 L 31.08 19.32 L 31.08 18.72 L 31.08 18.48 L 31.08 17.64 L 31.08 17.04 L 31.08 16.32 L 31.20 15.60 L 31.32 14.88 L 31.44 14.28 L 31.44 13.80 L 31.44 13.68 L 31.44 13.56 L 31.44 13.44 L 31.68 13.32 L 31.68 13.56 L 31.68 13.80 L 31.92 14.76 L 32.16 15.24 L 32.40 15.84 L 32.52 16.20 L 32.52 16.32 L 32.88 16.32 L 33.24 16.32 L 34.08 15.96 L 34.92 15.72 L 36.24 15.60 L 37.80 15.36 L 39.96 15.24 L 41.52 15.12 L 42.84 15.00 L 43.44 15.00 L 43.68 15.00 L 43.56 15.00 L 43.08 15.00 L 42.00 15.12 L 39.84 15.36 L 37.20 16.20 L 34.92 16.92 L 32.04 17.76 L 31.08 18.24 L 30.48 18.60 L 30.36 18.72 L 30.36 18.84 L 30.48 18.84 L 30.96 19.08 L 31.68 19.20 L 32.52 19.32 L 33.00 19.32 L 33.36 19.32 L 33.72 19.32 L 33.96 19.32 L 34.08 19.32 L 34.08 19.44 L 33.84 19.68 L 33.48 19.68 L 33.24 20.04 L 33.12 20.04 L 33.12 19.80 L 33.48 19.56 L 34.08 18.96 L 34.44 18.72 L 34.92 18.24 L 35.28 18.00 L 35.40 17.88 L 35.64 17.52 L 35.76 17.40 L 35.88 17.28 L 36.00 17.16 L 36.36 17.16 L 36.72 16.80 L 36.84 16.80 L 36.96 16.80 L 36.96 16.68 L 37.32 16.68 L 37.56 16.68 L 38.16 16.44 L 38.76 16.32 L 39.12 16.32 L 39.24 16.32 L 39.48 16.32 L 39.60 16.20 L 39.72 16.08 L 39.84 16.08 L 40.20 15.96 L 41.16 15.96 L 41.52 15.84 L 41.28 15.96 L 40.92 16.08 L 40.32 16.20 L 39.60 16.32 L 38.40 16.92 L 37.44 17.28 L 36.24 17.64 L 35.40 17.88 L 35.28 17.88 L 35.04 18.00 L 34.92 18.00 L 34.92 18.12 L 34.68 18.12 L 34.44 18.12 L 33.84 18.36 L 33.36 18.48 L 32.76 18.72 L 32.04 18.84 L 31.92 18.96 L 31.80 18.96 L 31.68 19.08 L 31.56 19.20 L 31.44 19.20 L 31.32 19.20 L 31.32 19.32 L 31.20 19.32 L 31.08 19.32 L 30.96 19.32 L 30.84 19.32 L 30.72 19.32 L 30.72 19.08 L 30.72 18.72 L 30.72 18.60 L 30.72 18.24 L 30.72 17.88 L 30.72 17.64 L 30.72 16.92 L 30.72 16.56 L 30.72 16.08 L 30.96 15.84 L 30.96 15.60 L 30.96 15.48 L 31.08 15.24 L 31.08 15.00 L 31.08 14.88 L 31.08 14.52 L 31.08 14.40 L 31.08 14.16 L 31.20 13.92 L 31.20 13.68 L 31.20 13.44 L 31.20 13.20 L 31.20 12.96 L 31.20 12.72 L 31.20 12.48 L 31.20 12.36 L 31.20 12.12 L 31.20 12.00 L 31.20 11.76 L 31.20 11.40 L 31.20 11.28 L 31.20 11.40 L 31.32 11.52 L 31.44 11.76 L 31.68 12.24 L 31.80 12.36 L 31.92 12.84 L 31.92 13.44 L 32.04 13.80 L 32.16 13.80 L 32.28 13.80 L 32.52 13.80 L 32.76 13.80 L 33.12 13.80 L 33.72 13.92 L 34.08 13.92 L 34.20 13.92 L 34.32 13.92 L 34.56 13.92 L 34.80 13.92 L 35.04 13.92 L 35.40 13.92 L 35.76 13.92 L 35.88 13.92 L 36.12 14.04 L 36.24 14.04 L 36.48 14.04 L 37.44 14.40 L 38.64 14.40 L 39.60 14.88 L 39.72 14.88 L 39.84 14.88 L 39.96 14.88 L 40.08 14.88 L 40.32 14.88 L 40.44 14.88 L 40.56 14.88 L 40.68 14.88 L 40.80 14.88 L 40.92 14.88 L 41.04 14.88 L 41.16 14.88 L 41.28 15.00 L 41.40 15.00 L 41.52 15.00 L 41.76 15.00 L 41.88 15.00 L 42.00 15.12 L 42.12 15.12 L 42.24 15.24 "
      stroke-linejoin="round"></path>
    <path
      fill="none"
      stroke-linecap="round"
      stroke-width="0.12"
      stroke="#ffffff"
      d="M 17.64 40.80 L 17.40 40.80 L 17.04 40.80 L 15.96 40.80 L 14.88 40.80 L 14.16 40.80 L 14.04 40.80 L 13.92 40.80 L 13.92 40.92 L 13.92 41.04 L 14.16 41.28 L 14.76 41.40 L 15.24 41.64 L 15.84 41.76 L 16.44 42.00 L 16.92 42.12 L 18.60 42.24 L 19.08 42.24 L 19.20 42.24 L 18.96 42.00 L 18.84 41.88 "
      stroke-linejoin="round"></path>
    <path
      fill="none"
      stroke-linecap="round"
      stroke-width="0.96"
      stroke="#ffffff"
      d="M 16.56 41.28 L 16.56 41.40 L 16.32 41.52 L 15.96 41.52 L 15.60 41.52 L 14.64 41.52 L 13.92 41.52 L 13.68 41.52 L 13.32 41.52 L 13.32 41.64 L 13.56 41.64 L 13.80 41.76 L 13.92 41.88 L 14.88 42.24 L 15.72 42.48 L 16.56 42.60 L 17.28 42.72 L 17.76 42.84 L 18.00 42.84 L 18.36 42.84 L 18.48 42.84 L 18.60 42.84 L 18.72 42.84 L 18.36 42.84 L 18.12 42.84 L 17.76 42.84 L 17.52 42.84 L 16.92 42.84 L 16.20 42.84 L 15.72 42.72 L 15.36 42.60 L 15.24 42.48 L 14.88 42.36 L 14.88 42.24 L 14.64 42.12 L 14.40 41.76 L 14.28 41.76 L 14.16 41.64 L 14.04 41.52 L 13.92 41.52 L 13.92 41.28 L 14.16 41.16 L 14.52 41.16 L 15.00 40.92 L 16.08 40.68 L 16.80 40.56 L 17.40 40.08 L 17.88 39.96 L 18.36 39.72 L 18.60 39.72 L 18.72 39.72 L 18.84 39.72 L 18.84 39.84 L 18.48 39.84 L 18.24 40.08 L 17.76 40.20 L 17.28 40.44 L 16.92 40.56 L 16.32 40.68 L 15.72 40.92 L 15.12 41.04 L 14.88 41.04 L 14.52 41.04 L 14.40 41.04 L 14.64 40.92 L 14.88 40.92 L 16.08 40.56 L 16.68 40.32 L 17.28 40.08 L 18.00 39.72 L 18.12 39.60 L 18.48 39.48 L 18.60 39.36 L 18.96 39.36 L 19.08 39.36 L 19.20 39.24 L 19.20 39.12 "
      stroke-linejoin="round"></path>
    <path
      fill="none"
      stroke-linecap="round"
      stroke-width="0.96"
      stroke="#ffffff"
      d="M 15.48 41.52 L 15.48 41.40 L 15.48 41.28 L 15.48 40.92 L 15.96 40.68 L 16.20 40.56 L 16.56 40.56 L 16.80 40.44 L 17.16 40.20 L 17.40 40.20 L 17.88 39.96 L 18.00 39.96 L 18.12 39.96 L 18.24 39.96 L 18.36 39.84 L 18.60 39.84 L 18.72 39.84 L 18.84 39.72 L 18.96 39.60 L 19.08 39.48 L 18.96 39.48 L 18.48 39.48 L 18.36 39.48 L 17.64 39.48 L 17.16 39.48 L 16.68 39.60 L 16.32 39.72 L 15.96 39.96 L 15.60 40.08 L 15.36 40.44 L 15.12 40.44 L 15.00 40.56 L 14.52 40.68 L 13.56 40.68 L 13.32 40.80 L 13.20 40.80 L 13.32 40.80 L 13.56 40.80 L 13.92 40.80 L 14.64 40.68 L 15.72 40.32 L 16.44 40.32 L 17.40 40.08 L 17.76 40.08 L 18.00 39.96 L 18.48 39.84 L 18.84 39.84 L 18.96 39.72 L 19.08 39.60 L 19.20 39.60 L 18.84 39.60 L 18.60 39.84 L 18.24 40.08 L 17.76 40.44 L 17.04 40.68 L 16.68 40.92 L 16.20 40.92 L 15.60 41.04 L 15.72 41.04 L 15.84 41.04 L 16.08 41.04 L 16.56 41.40 L 17.40 41.52 L 18.12 41.76 L 18.60 42.00 L 18.84 42.00 L 19.08 42.12 L 19.20 42.12 L 19.32 42.12 L 18.96 42.12 L 18.72 42.12 L 18.36 42.12 L 18.12 42.12 L 17.88 42.12 L 17.28 42.12 L 16.92 42.12 L 16.68 42.12 L 16.56 42.00 L 16.44 42.00 L 16.44 41.76 L 16.68 41.64 L 16.92 41.64 L 17.04 41.64 L 17.16 41.40 L 17.16 41.28 "
      stroke-linejoin="round"></path>
    <path
      fill="none"
      stroke-linecap="round"
      stroke-width="0.96"
      stroke="#ffffff"
      d="M 40.44 20.04 L 40.44 20.16 L 40.80 20.40 L 41.04 20.64 L 41.04 20.76 L 41.16 20.76 L 41.16 21.00 L 41.28 21.00 L 41.28 21.24 L 41.28 21.36 L 41.28 21.24 L 41.28 20.88 L 41.28 20.76 L 41.28 20.40 L 41.40 20.28 L 41.40 20.16 L 41.64 20.16 L 41.76 20.28 L 41.76 20.52 L 41.76 20.64 L 41.76 20.76 L 41.76 20.88 L 41.52 20.88 L 41.40 20.88 L 41.16 20.88 L 41.16 20.76 L 40.92 20.40 L 40.92 20.16 L 40.92 20.04 L 40.92 20.16 L 40.92 20.28 L 40.92 20.40 L 40.92 20.52 "
      stroke-linejoin="round"></path>
    <path
      fill="none"
      stroke-linecap="round"
      stroke-width="0.96"
      stroke="#ffffff"
      d="M 24.72 17.28 L 24.72 17.16 L 24.72 17.04 L 24.84 16.92 L 25.20 16.92 L 25.80 16.92 L 25.92 16.92 L 26.16 16.92 L 26.16 17.04 L 26.16 17.16 L 26.04 17.16 L 25.92 17.16 L 25.80 17.16 L 25.68 17.16 L 25.56 17.16 L 25.08 17.28 L 24.72 17.64 L 24.60 17.64 L 24.48 17.64 L 24.36 17.64 L 24.48 17.76 L 24.60 17.88 "
      stroke-linejoin="round"></path>
    <path
      fill="none"
      stroke-linecap="round"
      stroke-width="0.96"
      stroke="#ffffff"
      d="M 20.64 31.20 L 20.64 31.44 L 20.64 31.80 L 20.64 32.16 L 20.64 32.40 L 20.64 32.64 L 20.64 33.00 L 20.64 33.24 L 20.76 33.48 L 20.76 33.72 L 20.88 33.84 L 21.00 34.08 L 21.00 33.84 L 21.00 33.60 L 21.00 33.12 L 20.76 32.52 L 20.64 32.28 L 20.52 31.80 L 20.40 31.56 L 20.40 31.44 L 20.28 31.32 L 20.28 31.20 L 20.16 31.20 L 20.04 31.20 L 20.04 31.56 L 20.04 32.04 L 20.04 32.52 L 20.04 32.76 L 20.04 33.00 L 20.04 33.36 L 20.16 33.48 L 20.16 33.72 L 20.40 33.84 L 20.52 33.84 L 20.52 33.96 L 20.64 34.08 "
      stroke-linejoin="round"></path>
    <path
      fill="none"
      stroke-linecap="round"
      stroke-width="0.96"
      stroke="#ffffff"
      d="M 37.56 35.52 L 37.56 35.64 L 37.56 36.00 L 37.56 36.24 L 37.56 36.60 L 37.56 36.84 L 37.56 36.96 L 37.44 37.20 L 37.32 37.32 L 37.32 37.44 L 37.44 37.32 L 37.68 37.08 L 38.28 36.72 L 38.76 36.24 L 39.12 35.88 L 39.24 35.64 L 39.36 35.52 L 39.48 35.40 L 39.48 35.28 L 39.48 35.16 L 39.48 35.04 L 39.48 34.92 L 39.24 34.92 L 38.88 35.04 L 38.52 35.28 L 38.40 35.40 L 38.16 35.76 L 38.04 36.12 L 37.92 36.24 L 37.92 36.60 L 37.68 36.84 L 37.56 36.96 L 37.68 36.84 L 37.92 36.12 L 38.04 35.64 L 38.04 35.52 L 38.04 35.40 L 38.04 35.28 "
      stroke-linejoin="round"></path>
    <path
      fill="none"
      stroke-linecap="round"
      stroke-width="0.96"
      stroke="#aaaaaa"
      d="M 36.60 25.08 L 36.72 25.20 L 36.84 25.20 L 37.08 25.20 L 37.44 25.20 L 38.52 25.32 L 39.72 25.44 L 41.16 25.56 L 42.24 25.80 L 42.84 25.92 L 43.56 26.16 L 43.80 26.28 L 44.40 26.52 L 45.36 26.76 L 46.56 27.24 L 46.92 27.24 L 47.16 27.24 L 47.52 27.24 L 47.64 27.36 L 47.64 27.48 L 47.76 27.60 L 47.88 27.72 L 48.00 27.96 L 48.24 28.08 L 48.24 28.20 L 48.36 28.20 L 48.48 28.32 L 48.60 28.44 L 48.72 28.56 L 48.84 28.68 L 48.84 28.80 L 48.96 28.80 L 49.20 29.16 L 49.32 29.28 L 49.56 29.40 L 49.68 29.40 L 49.80 29.40 L 49.80 29.52 L 49.92 29.64 L 50.16 29.76 L 50.16 29.88 L 50.16 30.00 L 50.16 30.24 L 50.16 30.60 L 50.16 30.72 L 50.16 30.96 L 50.16 31.08 L 50.16 31.20 L 50.16 31.32 L 50.16 31.56 L 50.16 31.68 L 50.16 31.80 L 50.04 31.92 L 49.92 31.92 L 49.80 31.80 "
      stroke-linejoin="round"></path>
    <path
      fill="none"
      stroke-linecap="round"
      stroke-width="0.96"
      stroke="#aaaaaa"
      d="M 26.16 24.72 L 26.04 24.60 L 25.92 24.60 L 25.68 24.60 L 24.60 24.60 L 23.64 24.60 L 22.68 24.60 L 22.08 24.60 L 21.60 24.72 L 20.64 24.72 L 20.16 24.72 L 19.68 24.72 L 19.08 24.72 L 18.72 24.72 L 18.48 24.72 L 18.24 24.72 L 17.64 24.72 L 17.28 24.84 L 17.04 24.84 L 16.92 24.84 L 16.68 24.84 L 16.32 24.84 L 16.20 24.84 L 16.08 24.84 L 15.84 24.96 L 15.72 24.96 L 15.60 24.96 L 15.36 24.96 L 15.24 24.96 L 15.00 24.96 L 14.76 24.96 L 14.64 24.96 L 14.52 24.96 L 14.40 25.08 L 14.28 25.08 L 14.16 25.08 L 13.92 25.08 L 13.80 25.08 L 13.68 25.08 L 13.44 25.08 L 13.32 25.44 L 13.20 25.56 L 13.20 25.68 L 13.20 25.80 L 13.20 26.04 L 13.20 26.16 L 13.20 26.28 L 13.20 26.52 L 13.08 26.88 L 13.08 27.00 L 13.08 27.12 L 13.08 27.24 L 13.08 27.48 L 13.08 27.72 L 12.96 27.84 L 12.96 27.96 "
      stroke-linejoin="round"></path>
    <path
      fill="none"
      stroke-linecap="round"
      stroke-width="4.68"
      stroke="#ffffff"
      d="M 37.32 14.76 L 37.32 14.64 L 36.96 14.64 L 36.72 14.52 L 36.48 14.52 L 36.00 14.52 L 35.52 14.52 L 35.28 14.52 L 35.28 14.64 L 35.28 14.88 L 35.28 15.00 L 35.28 15.12 L 35.28 15.24 L 35.40 15.24 L 35.52 15.24 L 35.64 15.24 L 35.76 15.24 L 35.88 15.24 L 36.00 15.12 L 36.12 14.88 L 36.36 14.64 L 36.48 14.52 L 36.60 14.40 L 36.72 14.28 L 36.84 14.16 L 36.96 14.16 L 37.08 14.28 L 37.08 14.40 L 37.08 14.52 L 37.08 14.64 L 37.08 14.88 L 37.08 15.00 L 37.08 15.12 L 36.96 15.24 L 36.84 15.24 L 36.84 15.36 L 36.72 15.36 L 36.36 15.48 L 36.24 15.48 L 36.12 15.48 L 36.00 15.48 L 35.88 15.48 L 35.88 15.36 L 35.88 15.12 L 35.88 14.88 L 35.88 14.64 L 35.88 14.40 L 35.88 14.28 L 36.00 14.16 L 36.00 14.04 L 36.12 14.04 L 36.36 13.92 L 36.60 13.92 L 36.72 13.92 L 36.84 13.92 L 36.96 13.92 L 37.08 14.04 L 37.08 14.16 L 37.20 14.28 L 37.20 14.40 L 37.20 14.52 L 36.96 14.88 L 36.72 15.00 L 36.48 15.12 L 36.36 15.12 L 36.12 15.24 L 36.00 15.24 L 35.88 15.24 L 35.76 15.24 L 35.64 15.24 L 35.52 15.24 L 35.52 15.12 L 35.52 15.00 "
      stroke-linejoin="round"></path>
    <path
      fill="none"
      stroke-linecap="round"
      stroke-width="2.76"
      stroke="#000000"
      d="M 36.48 14.16 L 36.36 14.28 L 36.24 14.40 L 36.00 14.40 L 36.12 14.40 L 36.24 14.40 L 36.48 14.40 L 36.60 14.40 L 36.72 14.40 L 36.84 14.40 L 36.84 14.52 L 36.84 14.76 L 36.84 14.88 L 36.72 14.88 L 36.60 14.88 L 36.48 14.88 L 36.24 14.88 L 36.24 14.76 L 36.24 14.64 L 36.24 14.52 L 36.24 14.40 L 36.24 14.28 L 36.36 14.04 L 36.48 14.04 L 36.60 14.04 L 36.60 14.16 L 36.60 14.28 L 36.60 14.40 L 36.60 14.52 L 36.60 14.64 L 36.48 14.64 L 36.36 14.64 L 36.12 14.64 L 36.00 14.64 L 36.00 14.52 L 36.00 14.40 "
      stroke-linejoin="round"></path>
    <path
      fill="none"
      stroke-linecap="round"
      stroke-width="0.24"
      stroke="#000000"
      d="M 44.04 14.16 L 44.16 14.16 L 44.40 14.16 L 44.52 14.16 L 44.64 14.16 L 44.76 14.16 L 44.76 14.28 L 44.76 14.64 L 44.76 14.76 L 44.76 14.88 L 44.76 15.00 L 44.40 14.76 L 44.40 14.64 L 44.40 14.52 L 44.40 14.40 L 44.40 14.28 L 44.40 14.04 L 44.64 13.92 L 44.88 13.92 L 45.00 13.92 L 45.12 13.92 L 45.24 13.92 L 45.36 13.92 L 45.48 14.04 L 45.48 14.16 L 45.48 14.28 L 45.48 14.40 L 45.48 14.52 L 45.36 14.52 L 45.12 14.52 L 45.00 14.52 L 44.88 14.52 L 44.76 14.40 L 44.76 14.16 L 44.76 14.04 L 44.76 13.80 L 44.76 13.68 L 44.88 13.68 L 45.00 13.68 L 45.00 13.80 L 45.00 14.04 L 45.00 14.28 L 45.00 14.40 L 45.00 14.52 L 45.00 14.76 L 44.88 14.76 L 44.76 14.76 L 44.76 14.52 L 44.76 14.40 L 44.76 14.16 L 44.76 14.04 L 44.76 13.68 L 44.76 13.56 L 44.88 13.56 L 45.00 13.56 L 45.00 13.80 L 45.00 14.16 L 44.88 14.40 L 44.64 14.64 L 44.52 14.64 L 44.28 14.52 L 44.28 14.40 L 44.28 14.16 L 44.28 14.04 L 44.52 13.80 L 44.64 13.80 L 45.00 13.68 L 45.12 13.68 L 45.24 13.68 L 45.24 13.92 L 45.12 14.04 L 44.88 14.28 L 44.76 14.28 L 44.64 14.28 L 44.64 14.16 L 44.64 13.92 L 44.76 13.80 L 44.88 13.68 L 44.88 13.56 "
      stroke-linejoin="round"></path>
    <path
      fill="none"
      stroke-linecap="round"
      stroke-width="1.32"
      stroke="#ffffff"
      d="M 31.08 12.24 L 30.96 12.24 L 30.96 12.12 L 30.96 11.88 L 30.96 11.76 L 30.96 11.64 L 30.96 11.52 L 30.96 11.40 L 30.96 11.28 L 31.08 11.40 L 31.20 11.52 L 31.20 11.64 L 31.32 11.88 L 31.44 12.00 L 31.56 12.12 L 31.56 12.24 L 31.80 12.36 L 31.92 12.48 "
      stroke-linejoin="round"></path>
    <path
      fill="none"
      stroke-linecap="round"
      stroke-width="1.32"
      stroke="#ffffff"
      d="M 30.48 12.48 L 30.48 12.60 L 30.48 12.72 L 30.48 12.84 L 30.48 12.96 L 30.48 13.08 L 30.48 13.20 L 30.60 13.20 L 30.84 12.96 L 30.96 12.96 L 31.08 12.72 L 31.20 12.60 L 31.20 12.48 L 31.20 12.36 "
      stroke-linejoin="round"></path>
    <path
      fill="none"
      stroke-linecap="round"
      stroke-width="1.32"
      stroke="#ffff00"
      d="M 42.72 42.96 L 42.60 43.08 L 42.60 43.20 L 41.40 44.40 L 40.68 45.36 L 39.84 46.20 L 39.48 46.80 L 39.24 47.28 L 39.24 47.40 L 39.24 47.52 L 39.24 47.28 L 39.24 47.04 L 39.72 45.72 L 40.68 44.88 L 41.76 44.04 L 42.96 43.20 L 43.68 43.08 L 44.28 42.72 L 44.40 42.72 L 44.28 43.08 L 44.28 43.56 L 43.68 44.76 L 42.96 46.20 L 42.36 46.92 L 42.00 47.40 L 42.00 47.28 L 42.12 46.80 L 42.72 45.84 L 43.44 44.76 L 44.16 43.44 L 44.88 42.60 L 45.24 41.88 L 45.24 41.64 L 45.00 41.64 L 44.40 42.48 L 43.32 43.56 L 40.56 46.32 L 39.24 47.52 L 39.12 47.88 L 39.00 47.88 L 39.00 47.76 L 39.24 47.40 L 39.60 46.44 L 40.32 45.60 L 40.92 44.88 L 41.28 44.40 L 41.52 43.92 L 41.64 43.80 L 41.76 43.68 L 41.76 43.56 "
      stroke-linejoin="round"></path>
    <path fill="none" stroke-linecap="round" stroke-width="1.32" stroke="#ffff00" d="M 41.88 42.84 L 41.40 42.96 L 40.68 43.92 L 39.72 44.76 L 39.12 45.84 L 38.64 46.44 L 38.52 46.80 L 38.64 46.80 " stroke-linejoin="round"></path>
    <path
      fill="none"
      stroke-linecap="round"
      stroke-width="1.32"
      stroke="#ffff00"
      d="M 42.24 42.96 L 42.00 43.68 L 40.92 45.60 L 39.60 47.16 L 38.88 48.60 L 38.28 49.92 L 38.04 50.40 L 38.04 50.52 L 38.16 50.52 L 39.24 49.44 L 40.80 47.88 L 41.64 47.28 L 41.28 48.24 L 40.56 49.32 L 40.32 49.92 L 40.32 49.68 L 40.92 48.48 L 42.36 46.80 L 43.44 46.08 L 43.68 45.96 L 42.36 47.16 L 41.76 48.12 L 41.64 48.36 L 41.64 48.24 L 42.48 47.52 L 42.72 47.04 L 42.72 46.80 "
      stroke-linejoin="round"></path>
    <path
      fill="none"
      stroke-linecap="round"
      stroke-width="1.32"
      stroke="#ffff00"
      d="M 9.48 39.60 L 9.12 39.96 L 8.28 41.64 L 7.32 43.20 L 6.96 43.92 L 6.84 44.16 L 6.84 44.04 L 7.20 42.72 L 8.04 41.28 L 9.12 39.36 L 9.36 37.56 L 9.36 37.20 L 9.36 37.32 L 8.40 39.12 L 7.56 41.28 L 7.08 42.36 L 6.72 43.08 L 6.72 43.20 L 6.84 42.60 L 7.20 41.40 L 8.16 39.48 L 9.12 37.56 L 9.60 36.72 L 9.72 36.72 L 9.72 36.60 L 9.24 36.84 L 8.28 37.68 L 8.04 38.28 L 8.04 38.16 L 8.04 37.56 L 8.64 36.12 L 9.24 34.32 L 9.48 33.48 L 9.48 33.60 L 9.36 34.08 L 9.00 34.80 L 9.00 34.92 L 9.12 34.80 L 9.36 34.56 L 9.48 34.44 L 9.84 34.44 L 10.56 34.44 L 11.04 34.44 "
      stroke-linejoin="round"></path>
    <path
      fill="none"
      stroke-linecap="round"
      stroke-width="1.32"
      stroke="#ffff00"
      d="M 10.92 38.04 L 10.68 38.40 L 10.20 38.88 L 9.84 39.24 L 9.60 39.72 L 9.48 40.08 L 9.12 40.44 L 8.88 40.80 L 8.88 40.92 L 9.00 40.68 L 9.24 40.44 L 10.20 39.12 L 11.16 37.92 L 12.12 36.12 L 12.36 35.28 L 12.48 34.92 L 11.88 35.52 L 11.28 36.72 L 10.92 37.56 L 10.80 37.68 L 10.80 37.44 L 11.64 36.12 L 12.12 35.28 L 12.24 35.04 L 12.24 34.92 L 12.24 35.04 L 12.12 35.40 L 12.12 35.04 L 12.48 34.56 L 12.72 34.08 L 13.20 33.72 L 13.32 33.48 "
      stroke-linejoin="round"></path>
    <path
      fill="none"
      stroke-linecap="round"
      stroke-width="1.44"
      stroke="#555555"
      d="M 13.08 27.96 L 13.20 27.96 L 13.56 27.96 L 14.88 27.96 L 16.32 27.96 L 17.64 27.96 L 18.48 27.96 L 19.56 27.96 L 19.92 27.96 L 20.52 27.96 L 21.00 27.96 L 21.60 27.96 L 22.08 27.96 L 22.20 27.96 L 22.32 27.96 L 22.44 27.96 L 22.68 27.96 L 23.04 27.96 L 23.40 27.96 L 23.76 27.96 L 23.88 27.84 L 24.00 27.84 L 24.12 27.84 L 24.24 27.84 L 24.36 27.84 L 24.60 27.84 L 24.84 27.84 L 24.96 27.84 L 25.08 27.84 "
      stroke-linejoin="round"></path>
  </g>
</svg>
